<svg xmlns="http://www.w3.org/2000/svg" version="1.1" xmlns:xlink="http://www.w3.org/1999/xlink" width="512" height="512" x="0" y="0" viewBox="0 0 512 512" style="enable-background:new 0 0 512 512" xml:space="preserve" class=""><g><g data-name="Layer 2"><g data-name="27 copy 2"><path d="M494 94.86c-8.16-34-42.81-68.66-76.83-76.83A729.1 729.1 0 0 0 94.86 18C60.89 26.19 26.2 60.84 18 94.86a729.1 729.1 0 0 0 0 322.28c8.17 34 42.86 68.67 76.83 76.83a729.1 729.1 0 0 0 322.28 0c34-8.17 68.67-42.86 76.83-76.83A729.1 729.1 0 0 0 494 94.86zm-143.51 259H296l-41.64-96.69-44.71 96.69h-54.53L71 158.19h60.92l51.42 129.67 55.89-129.67h33.54l51.42 129.67 55.89-129.67H441z" data-name="23" fill="#ffffff" opacity="1" data-original="#000000" class=""></path></g></g></g></svg>