<svg xmlns="http://www.w3.org/2000/svg" version="1.1" xmlns:xlink="http://www.w3.org/1999/xlink" width="512" height="512" x="0" y="0" viewBox="0 0 512 512" style="enable-background:new 0 0 512 512" xml:space="preserve" class=""><g><path d="M490.702 460.459h4.838l-9.281-14.032c5.684 0 8.675-3.597 8.719-8.025a7.514 7.514 0 0 0-.013-.541c0-6.014-3.628-8.887-11.072-8.887h-12.028v31.485h4.524v-13.725h5.56l8.753 13.725zm-9.054-17.272h-5.246v-10.644h6.648c3.435 0 7.35.561 7.35 5.058 0 5.172-3.962 5.586-8.78 5.586M368.876 406.883H304.73V306.427c0-23.955-.428-54.792-33.363-54.792-33.41 0-38.521 26.1-38.521 53.048v102.193H168.7V200.298h61.581v28.231h.862a67.49 67.49 0 0 1 60.759-33.37c65.015 0 77.003 42.764 77.003 98.398l-.029 113.326zM96.32 172.06c-20.559.004-37.228-16.66-37.232-37.218-.004-20.559 16.66-37.228 37.218-37.232 20.559-.004 37.228 16.66 37.232 37.218.004 20.559-16.659 37.229-37.218 37.232m32.073 234.824H64.18V200.298h64.213v206.586zM400.856 38.041H31.946C14.511 37.844.213 51.81 0 69.245v370.44c.205 17.444 14.502 31.424 31.946 31.238h368.91c17.479.219 31.831-13.76 32.073-31.238V69.219c-.249-17.47-14.603-31.435-32.073-31.205" fill="#ffffff" opacity="1" data-original="#000000" class=""></path><path d="M482.195 414.949c-16.303.157-29.393 13.5-29.236 29.803.157 16.303 13.5 29.392 29.804 29.236 16.303-.157 29.393-13.5 29.236-29.803-.155-16.082-13.154-29.081-29.236-29.235h-.568m.675 55.646c-14.294.238-26.75-11.144-26.988-25.438-.238-14.294 11.157-26.075 25.451-26.313 14.295-.238 26.075 11.157 26.313 25.451v.434c.299 13.983-10.793 25.563-24.776 25.866h-.668" fill="#ffffff" opacity="1" data-original="#000000" class=""></path></g></svg>